<svg width="83" height="92" viewBox="0 0 83 92" fill="none" xmlns="http://www.w3.org/2000/svg">
<path d="M81.75 9.375C81.75 10.9167 81.3333 12.5208 80.5 14.1875C79.7083 15.8542 78.875 17.2917 78 18.5L36.625 75.0625H52C55.5 75.0625 58.25 74.4375 60.25 73.1875C62.25 71.8958 63.7917 70.3333 64.875 68.5C66 66.625 66.9583 64.7708 67.75 62.9375C68.5833 61.0625 69.5417 59.5 70.625 58.25C71.7083 56.9583 73.2292 56.3125 75.1875 56.3125C77.1875 56.3125 78.9375 56.9167 80.4375 58.125C81.9375 59.2917 82.6875 60.9375 82.6875 63.0625C82.6875 63.8542 82.5417 64.7708 82.25 65.8125L77.5625 81.3125C76.7292 84.1042 75.6875 86.4583 74.4375 88.375C73.2292 90.25 70.9167 91.1875 67.5 91.1875C66.1667 91.1875 64.8542 91.0208 63.5625 90.6875C62.2708 90.3542 60.9583 90.0417 59.625 89.75C57.375 89.25 55.1042 89 52.8125 89H7.4375C5.27083 89 3.54167 88.3958 2.25 87.1875C1 85.9792 0.375 84.2917 0.375 82.125C0.375 80.5417 0.770833 78.9375 1.5625 77.3125C2.39583 75.6458 3.27083 74.1875 4.1875 72.9375L45.6875 16.4375H31C27.5833 16.4375 24.9583 16.9167 23.125 17.875C21.3333 18.8333 19.9792 20.0417 19.0625 21.5C18.1458 22.9167 17.375 24.3542 16.75 25.8125C16.125 27.2292 15.3125 28.4167 14.3125 29.375C13.3125 30.3333 11.7708 30.8125 9.6875 30.8125C8.14583 30.8125 6.52083 30.2708 4.8125 29.1875C3.14583 28.1042 2.3125 26.6875 2.3125 24.9375C2.3125 24.7708 2.35417 24.4792 2.4375 24.0625L5.375 10.3125C6 7.39583 7 5.02083 8.375 3.1875C9.79167 1.35417 12.1458 0.4375 15.4375 0.4375C17.9375 0.4375 20.3958 0.791667 22.8125 1.5C25.2292 2.16667 27.6875 2.5 30.1875 2.5H74.75C76.9167 2.5 78.625 3.10417 79.875 4.3125C81.125 5.47917 81.75 7.16667 81.75 9.375Z" fill="white"/>
</svg>
